# xmcd
#
# Track frame offsets:
#	150
#	17769
#	46029
#	69582
#	87931
#	102464
#	117634
#	140940
#	160697
#	179879
#	206389
#	222532
#	244438
#	267524
#	286862
#	307852
#	323157
#
# Disc length: 4580 seconds
#
# Revision: 3
# Processed by: cddbd v1.5.2PL0 Copyright (c) Steve Scherf et al.
# Submitted via: audiograbber 1.83.01
#
DISCID=0811e211
DTITLE=Elton John - Diamonds (Deluxe Edition) [remastered] [CD 3)
DYEAR=2017
DGENRE=Pop/Rock
TTITLE0=Elton John - Skyline Pigeon [piano version]
TTITLE1=Elton John - Lucy In The Sky With Diamonds
TTITLE2=Elton John - Pinball Wizard
TTITLE3=Elton John - Mama Can't Buy You Love
TTITLE4=Elton John - Part-Time Love
TTITLE5=Elton John - Victim Of Love
TTITLE6=Elton John - Empty Garden (Hey Hey Johnny)
TTITLE7=Elton John - Kiss The Bride
TTITLE8=Dionne Warwick with Elton John and Gladys Knight and Stevie Wonder - That's
TTITLE8=What Friends Are For
TTITLE9=Elton John - The One
TTITLE10=Elton John and Kiki Dee - True Love
TTITLE11=Elton John - Believe
TTITLE12=Elton John and Luciano Pavarotti - Live Like Horses
TTITLE13=Elton John and LeAnn Rimes - Written In The Stars
TTITLE14=Elton John - This Train Don't Stop There Anymore
TTITLE15=Elton John vs. Pnau - Good Morning To The Night
TTITLE16=Elton John - Step Into Christmas
EXTD=
EXTT0=
EXTT1=
EXTT2=
EXTT3=
EXTT4=
EXTT5=
EXTT6=
EXTT7=
EXTT8=
EXTT9=
EXTT10=
EXTT11=
EXTT12=
EXTT13=
EXTT14=
EXTT15=
EXTT16=
PLAYORDER=
